<svg width="125" height="173" viewBox="0 0 125 173" fill="none" xmlns="http://www.w3.org/2000/svg">
<mask id="mask0_10401_45008" style="mask-type:alpha" maskUnits="userSpaceOnUse" x="0" y="0" width="125" height="173">
<rect width="125" height="173" fill="#D9D9D9"/>
</mask>
<g mask="url(#mask0_10401_45008)">
<g style="mix-blend-mode:multiply">
<path opacity="0.4" d="M108.282 -62.1441L236.969 5.49356C250.197 12.4463 255.284 28.806 248.331 42.0342L182.643 167.013C175.69 180.242 159.33 185.329 146.102 178.376L17.4151 110.739C4.18695 103.786 -0.900323 87.4261 6.05237 74.1979L71.7413 -50.7814C78.694 -64.0095 95.0538 -69.0967 108.282 -62.1441Z" fill="#DDDDDD"/>
<path opacity="0.8" d="M111.389 -42.3862L218.933 14.1389C229.988 19.9494 234.24 33.6215 228.429 44.6764L173.533 149.122C167.723 160.177 154.05 164.428 142.996 158.618L35.4513 102.093C24.3964 96.2824 20.1449 82.6103 25.9554 71.5553L80.8518 -32.8902C86.6623 -43.9451 100.334 -48.1966 111.389 -42.3862Z" fill="#DDDDDD"/>
<g style="mix-blend-mode:multiply" opacity="0.34">
<path d="M114.519 -22.483L200.766 22.8484C209.632 27.5082 213.041 38.4726 208.381 47.3383L164.356 131.101C159.696 139.966 148.732 143.376 139.866 138.716L53.6191 93.3845C44.7534 88.7248 41.3439 77.7603 46.0037 68.8947L90.029 -14.8676C94.6887 -23.7332 105.653 -27.1427 114.519 -22.483Z" fill="#DDDDDD"/>
</g>
</g>
<g style="mix-blend-mode:multiply" opacity="0.4">
<path d="M132.603 -68.5537L73.0789 57.4153C66.9602 70.3642 72.4971 85.8215 85.446 91.9402L207.786 149.749C220.735 155.868 236.192 150.331 242.311 137.382L301.835 11.4132C307.953 -1.53573 302.416 -16.9931 289.468 -23.1118L167.128 -80.9208C154.179 -87.0395 138.722 -81.5026 132.603 -68.5537Z" stroke="#DDDDDD" stroke-width="1.17625" stroke-miterlimit="10"/>
</g>
<g style="mix-blend-mode:multiply" opacity="0.4">
<path d="M141.615 -51.6367L91.87 53.6365C86.7566 64.458 91.3838 77.3757 102.205 82.4892L204.445 130.801C215.267 135.914 228.185 131.287 233.298 120.465L283.043 15.192C288.156 4.37059 283.529 -8.54718 272.707 -13.6606L170.467 -61.972C159.646 -67.0854 146.728 -62.4582 141.615 -51.6367Z" stroke="#DDDDDD" stroke-width="1.17625" stroke-miterlimit="10"/>
</g>
<g style="mix-blend-mode:multiply" opacity="0.4">
<path d="M150.693 -34.5954L110.799 49.8302C106.699 58.5087 110.41 68.8683 119.088 72.9691L201.081 111.713C209.76 115.814 220.119 112.103 224.22 103.425L264.114 18.9991C268.214 10.3206 264.504 -0.039053 255.825 -4.13987L173.832 -42.884C165.153 -46.9848 154.794 -43.2739 150.693 -34.5954Z" stroke="#DDDDDD" stroke-width="1.17625" stroke-miterlimit="10"/>
</g>
</g>
</svg>
