<svg width="81" height="84" viewBox="0 0 81 84" fill="none" xmlns="http://www.w3.org/2000/svg">
<path d="M66.4616 53.1485C65.4997 52.773 64.7445 53.0023 64.1958 53.8364" stroke="#0225FF" stroke-width="0.887822"/>
<path d="M67.483 55.6384C67.3191 55.8547 67.252 56.0846 67.2817 56.3282" stroke="#0225FF" stroke-width="0.887822"/>
<path d="M45.2752 70.3724C44.9652 69.6007 44.2509 69.483 43.4244 69.4206C43.1833 69.4016 42.8781 69.202 42.5088 68.8218" stroke="#0225FF" stroke-width="0.887822"/>
<path d="M45.7871 58.321C45.071 58.4672 44.5675 58.8712 44.2765 59.533C43.8454 60.5121 44.0414 61.2702 44.8644 61.8073C45.4754 62.2083 45.8103 62.8767 45.641 63.5843C45.4362 64.4398 45.3186 65.1813 44.6007 65.5467C44.5057 65.5942 44.2201 65.6554 43.7439 65.7302C43.3283 65.7956 42.9494 65.9655 42.6074 66.24" stroke="#0225FF" stroke-width="0.887822"/>
<path d="M27.0113 7.79246C24.4296 6.23707 21.6733 4.72505 18.7424 3.2564C18.1438 2.95697 18.1723 2.2066 18.7192 1.87152C20.9245 0.521697 23.2111 -0.097962 25.5791 0.0125431C26.3178 0.0470017 27.2975 0.231768 28.5183 0.566848C43.1466 4.58068 57.6823 8.55708 72.1253 12.4961C76.6624 13.7348 79.6443 17.4563 80.3978 22.0672C80.6068 23.3446 80.6044 24.7764 80.3907 26.3627C80.2589 27.3429 79.9062 28.4213 79.6212 29.4069C77.3363 37.2789 75.0194 45.2763 72.6704 53.399C72.5528 53.8053 72.4216 54.0572 72.2767 54.1547C71.8741 54.4274 71.3825 54.2937 71.1563 53.8677C68.7823 49.4083 66.0712 45.0962 63.0227 40.9315C53.3287 27.6905 41.0731 16.2693 27.0113 7.79246Z" fill="#0225FF"/>
<path d="M22.2782 9.03964L14.7743 2.35011C14.6568 2.24534 14.4766 2.25573 14.3719 2.37332L14.3648 2.38131C14.2601 2.4989 14.2705 2.67916 14.388 2.78394L21.8919 9.47347C22.0095 9.57824 22.1896 9.56784 22.2943 9.45025L22.3014 9.44227C22.4062 9.32467 22.3958 9.14441 22.2782 9.03964Z" fill="#0225FF"/>
<path d="M66.4653 53.1473C65.5034 52.7718 64.7481 53.0011 64.1994 53.8353C61.6723 47.4034 58.422 41.4088 54.4484 35.8515C47.6224 26.2999 39.072 18.3828 29.679 11.4495C28.3929 10.5001 27.0242 9.51503 25.573 8.49434C25.5552 8.48127 25.5528 8.46523 25.5659 8.44622C25.5778 8.42839 25.5932 8.42542 25.6122 8.4373C32.6176 13.1058 39.1883 18.2841 45.3244 23.9722C46.1557 24.7422 47.0042 25.5614 47.87 26.43C55.5796 34.1547 62.2008 43.0129 66.4653 53.1473Z" fill="#0225FF"/>
<path d="M7.03825 67.2088C4.5622 66.1554 2.55999 64.2572 1.40212 61.8956C0.00436832 59.0427 -0.348336 56.0917 0.344008 53.0427C0.526892 52.2371 0.811905 51.1731 1.19905 49.8506C4.87097 37.3041 8.79168 23.8159 12.9612 9.3861C13.2248 8.47176 14.2295 8.44146 14.7194 9.17756C14.882 9.42353 15.0495 9.67365 15.2217 9.92793C19.7605 16.667 21.818 24.5609 21.9925 32.7312C22.0733 36.4777 21.8607 40.0756 21.3548 43.525C20.1269 51.9056 17.6983 60.1566 14.0692 68.2782C13.8412 68.7915 13.5009 69.041 12.8828 68.8842C11.0195 68.4065 9.3142 67.9437 7.76682 67.4957C7.65875 67.4648 7.41589 67.3692 7.03825 67.2088Z" fill="#E40505"/>
<path d="M45.7932 58.3213C45.0771 58.4675 44.5735 58.8715 44.2826 59.5333C43.8515 60.5124 44.0475 61.2705 44.8704 61.8076C45.4814 62.2086 45.8163 62.877 45.6471 63.5846C45.4422 64.4401 45.3247 65.1816 44.6068 65.547C44.5118 65.5945 44.2262 65.6557 43.75 65.7305C43.3343 65.7959 42.9555 65.9658 42.6135 66.2403L42.8362 59.9362C42.8397 59.8363 42.8005 59.8149 42.7186 59.872C41.9134 60.4334 41.0548 60.5261 40.5044 59.5619C40.0163 58.7099 39.2183 58.8774 38.4363 59.0895C37.9981 59.2072 37.7101 59.4739 37.5723 59.8898C37.4654 60.2106 37.4939 60.5368 37.298 60.8344C36.7387 61.6811 35.1978 61.6026 34.7543 60.6188C34.6135 60.3069 34.699 60.0164 34.6224 59.6991C34.4479 58.9701 33.9829 58.84 33.3773 58.6226C32.752 58.398 32.1553 58.4461 31.742 59.0307C31.3608 59.569 30.7837 59.749 30.1442 59.5048C30.0599 59.4727 29.9114 59.3753 29.6988 59.2125C29.1342 58.7812 28.9507 58.0914 29.3372 57.4712C29.697 56.8919 29.5759 56.2931 29.1342 55.8172C28.6318 55.2753 28.2114 54.7478 27.3635 55.1042C26.5025 55.4666 25.8713 55.1922 25.47 54.2808C25.1689 53.5964 25.3862 52.8763 26.0471 52.5377C26.9449 52.0796 26.7489 50.9817 26.4604 50.2527C26.2822 49.8036 25.9058 49.5463 25.331 49.4809C25.2894 49.4762 25.2651 49.4946 25.258 49.5362C23.9754 57.243 21.6597 64.7467 18.6314 71.9384C18.5602 72.106 18.4343 72.1957 18.2538 72.2076C17.7978 72.2373 17.3192 72.2753 16.818 72.3216C16.4849 72.3537 16.1482 72.0846 16.3335 71.7317C21.7007 61.5367 24.9213 49.8053 24.973 38.2237C25.0145 28.9056 22.9506 20.2114 18.7811 12.1409C18.7497 12.0805 18.7373 12.0122 18.7454 11.9449C18.768 11.7417 18.8392 11.6181 18.9592 11.5741C19.2109 11.4815 19.4045 11.551 19.5399 11.7827C24.7539 20.7354 26.7383 31.2922 26.0988 41.7474C26.0786 42.0908 26.1486 42.111 26.309 41.808C26.6474 41.1717 27.4134 40.8526 28.06 41.2448C29.0469 41.8401 29.6881 41.2412 30.3205 40.5514C30.6661 40.1718 30.6429 39.6317 30.447 39.1772C29.7879 37.6409 32.255 36.4627 33.0014 37.9296C33.2597 38.434 33.7621 38.7031 34.3285 38.6176C35.1942 38.4875 35.9584 38.3235 36.0617 37.2737C36.1401 36.4895 36.7778 36.0938 37.5723 36.1473C38.1352 36.1853 38.5259 36.4087 38.7444 36.8174C39.058 37.4074 38.7177 37.9938 39.3091 38.5106C39.4611 38.6425 39.6458 38.7459 39.8631 38.8208C40.4705 39.0275 41.0709 39.2414 41.6124 38.7352C41.8422 38.5213 41.9793 38.2362 42.2697 38.0864C42.6699 37.8809 43.0653 37.8797 43.4561 38.0829C44.4239 38.5879 44.6602 39.2818 44.165 40.1647C43.9602 40.5283 43.937 41.0558 44.1775 41.398C44.6585 42.0825 45.2695 42.8631 46.2278 42.4211C47.8096 41.6957 49.0067 44.1464 47.5406 44.9788C46.6696 45.4725 46.7747 46.3048 47.0258 47.1193C47.1921 47.6564 47.5466 47.9606 48.0893 48.0319C48.8493 48.1305 49.2531 48.5345 49.3006 49.2439C49.373 50.3406 48.8826 50.8985 47.8292 50.9175C47.2806 50.9264 46.8833 51.2865 46.6999 51.7873C46.3792 52.6589 46.2029 53.313 47.0739 53.9421C48.1801 54.7389 47.1363 56.6798 45.8573 56.4303C45.7896 56.416 45.7564 56.444 45.7575 56.5141L45.7932 58.3213ZM26.8238 45.8361C27.1284 45.0714 27.3795 44.2836 26.5762 43.6937C26.3351 43.5166 26.176 43.3129 26.0988 43.0823C26.0667 42.9861 26.0453 42.9885 26.0346 43.0895L25.6926 46.5312C25.6912 46.5469 25.6935 46.5628 25.6993 46.5775C25.705 46.5922 25.7142 46.6054 25.7259 46.6159C25.7377 46.6265 25.7518 46.6341 25.767 46.6383C25.7823 46.6425 25.7983 46.643 25.8137 46.6399C26.3149 46.5377 26.6516 46.2698 26.8238 45.8361ZM40.9408 48.7716C40.9408 47.6664 40.502 46.6065 39.721 45.825C38.9399 45.0435 37.8806 44.6045 36.7761 44.6045C35.6715 44.6045 34.6122 45.0435 33.8311 45.825C33.0501 46.6065 32.6113 47.6664 32.6113 48.7716C32.6113 49.8768 33.0501 50.9367 33.8311 51.7182C34.6122 52.4997 35.6715 52.9387 36.7761 52.9387C37.8806 52.9387 38.9399 52.4997 39.721 51.7182C40.502 50.9367 40.9408 49.8768 40.9408 48.7716Z" fill="#0225FF"/>
<path d="M32.6904 23.4745C30.9577 20.5408 28.8961 17.5554 26.5056 14.5183C26.4533 14.4529 26.4189 14.3846 26.4023 14.3133C26.3702 14.1814 26.4266 14.0846 26.5715 14.0228C26.6099 14.0067 26.6523 14.0029 26.6929 14.0118C26.7334 14.0207 26.77 14.042 26.7977 14.0727C32.422 20.2657 36.7607 27.2472 39.8139 35.017C39.916 35.2748 39.8323 35.4376 39.5627 35.5053L38.9803 35.6515C38.7594 35.7073 38.6068 35.6295 38.5224 35.418C36.8421 31.1927 34.898 27.2115 32.6904 23.4745Z" fill="#0225FF"/>
<path d="M64.1985 53.8377C64.7472 53.0036 65.5025 52.7743 66.4644 53.1497C67.5795 53.7439 67.9209 54.5744 67.4886 55.6415C67.3248 55.8577 67.2577 56.0876 67.2874 56.3312C67.1377 57.0852 67.6864 57.6216 68.219 58.1314C68.8086 58.6928 69.4784 58.9317 70.2176 58.552C71.0905 58.1052 71.8119 58.2211 72.382 58.8996C73.1747 59.8424 73.2619 61.0366 72.1415 61.7674C71.4111 62.2432 71.2366 62.9972 71.4842 63.7921C71.673 64.3999 71.7157 64.9257 72.284 65.3356C72.5274 65.5103 72.7816 65.6053 73.0464 65.6208C74.3966 65.6992 74.9975 66.4597 74.8491 67.9022C74.7689 68.6632 74.1722 69.3352 73.3617 69.3726C73.123 69.3851 72.8861 69.3904 72.6616 69.4849C71.7318 69.8824 71.7656 70.524 71.4859 71.3439C71.2775 71.9499 71.4414 72.6236 71.8957 73.0585C72.1379 73.2902 72.4532 73.4167 72.6616 73.6912C73.0405 74.1903 73.1283 74.7172 72.9253 75.2721C72.4728 76.502 71.4966 77.1436 70.2301 76.477C69.669 76.1829 68.9066 76.3255 68.4808 76.7479C67.909 77.3165 67.2963 77.7621 67.3141 78.6604C67.323 79.1648 67.6668 79.5088 67.7256 79.9918C67.8342 80.8829 67.4014 81.3963 66.6977 81.808C65.8071 82.3284 64.8683 82.1609 64.3054 81.2555C63.9616 80.7012 63.331 80.3857 62.6986 80.5051C61.7866 80.6798 60.6145 80.94 60.4791 82.0415C60.4542 82.2423 60.4257 82.4407 60.3936 82.6368C60.2654 83.4341 59.7802 83.8803 58.9383 83.9753C57.5512 84.1333 56.8096 83.5374 56.7134 82.1876C56.6706 81.5692 56.2378 81.0184 55.6588 80.8402C54.631 80.5229 53.5266 80.1575 52.8514 81.3196C52.2387 82.3748 51.1271 82.291 50.2436 81.7189C49.4206 81.1859 49.1837 80.277 49.6593 79.3965C49.9817 78.7994 49.857 78.0312 49.4224 77.5785C49.211 77.3587 48.9919 77.1317 48.7651 76.8976C48.2966 76.4164 47.5466 76.2257 46.9285 76.534C46.2249 76.8852 45.4892 76.9957 44.8818 76.4182C44.1924 75.7623 43.7969 74.7071 44.4275 73.816C44.6555 73.4952 45.0047 73.365 45.2683 73.0923C45.9791 72.3545 45.6994 71.3118 45.279 70.3761C44.9691 69.6043 44.2547 69.4867 43.4282 69.4243C43.1871 69.4053 42.8819 69.2057 42.5126 68.8254C42.0756 67.9331 42.1088 67.0716 42.6124 66.241C42.9544 65.9666 43.3332 65.7966 43.7488 65.7313C44.225 65.6564 44.5107 65.5952 44.6057 65.5477C45.3235 65.1823 45.4411 64.4409 45.646 63.5853C45.8152 62.8778 45.4803 62.2094 44.8693 61.8084C44.0463 61.2713 43.8504 60.5132 44.2815 59.5341C44.5724 58.8722 45.0759 58.4682 45.792 58.3221C46.064 58.3494 46.3276 58.4142 46.5829 58.5164C46.9915 58.6803 47.2444 58.7683 47.3418 58.7802C48.2485 58.8835 48.6333 58.3274 49.2015 57.782C49.7982 57.2081 49.9443 56.4631 49.5649 55.7127C48.9877 54.5631 49.5631 53.6987 50.5998 53.2014C51.4299 52.804 52.2939 53.0695 52.782 53.8538C53.0729 54.3243 53.4856 54.5833 54.02 54.6309C54.501 54.6736 54.9392 54.4633 55.4023 54.3528C55.9955 54.212 56.4497 53.7646 56.594 53.1711C56.6795 52.8147 56.6207 52.4796 56.7793 52.1302C57.0465 51.5326 57.4977 51.2016 58.1331 51.1375C59.5403 50.9961 60.2873 51.5848 60.374 52.9038C60.4542 54.1211 61.5087 54.3279 62.451 54.5703C63.2099 54.7663 63.7924 54.5221 64.1985 53.8377ZM63.9598 67.5582C63.9598 66.1207 63.3891 64.7421 62.3732 63.7256C61.3573 62.7091 59.9795 62.1381 58.5428 62.1381C57.1061 62.1381 55.7283 62.7091 54.7124 63.7256C53.6965 64.7421 53.1258 66.1207 53.1258 67.5582C53.1258 68.27 53.2659 68.9748 53.5381 69.6324C53.8103 70.29 54.2094 70.8875 54.7124 71.3908C55.2154 71.8941 55.8126 72.2933 56.4698 72.5657C57.127 72.8381 57.8314 72.9783 58.5428 72.9783C59.2542 72.9783 59.9586 72.8381 60.6158 72.5657C61.273 72.2933 61.8702 71.8941 62.3732 71.3908C62.8762 70.8875 63.2752 70.29 63.5475 69.6324C63.8197 68.9748 63.9598 68.27 63.9598 67.5582Z" fill="#E40505"/>
<path d="M67.4889 55.6406C67.6777 55.9377 67.6106 56.1676 67.2876 56.3304C67.2579 56.0868 67.325 55.8569 67.4889 55.6406Z" fill="#0225FF"/>
<path d="M42.5101 68.824C42.8794 69.2042 43.1846 69.4038 43.4257 69.4228C44.2522 69.4852 44.9665 69.6029 45.2765 70.3746L45.2818 71.7844C45.2823 71.8152 45.2744 71.8454 45.259 71.8718C45.2436 71.8982 45.2213 71.9198 45.1945 71.9342C44.352 72.3887 43.3206 72.2978 42.3604 72.1783C42.2987 72.17 42.2702 72.1356 42.2749 72.075L42.5101 68.824Z" fill="#0225FF"/>
</svg>
