<svg width="375" height="508" viewBox="0 0 375 508" fill="none" xmlns="http://www.w3.org/2000/svg">
<g opacity="0.5">
<g style="mix-blend-mode:multiply">
<path opacity="0.4" d="M383.521 -104.629L-55.6027 -223.788C-100.742 -236.037 -147.264 -209.374 -159.512 -164.235L-275.238 262.237C-287.487 307.376 -260.824 353.898 -215.685 366.147L223.438 485.306C268.577 497.554 315.099 470.892 327.348 425.753L443.074 -0.719623C455.323 -45.8586 428.66 -92.3805 383.521 -104.629Z" fill="#DDDDDD"/>
<path opacity="0.8" d="M334.296 -65.9571L-32.6814 -165.539C-70.4047 -175.775 -109.284 -153.493 -119.52 -115.77L-216.233 240.634C-226.469 278.358 -204.187 317.237 -166.464 327.473L200.514 427.055C238.238 437.291 277.116 415.009 287.353 377.286L384.066 20.8815C394.302 -16.8417 372.02 -55.7207 334.296 -65.9571Z" fill="#DDDDDD"/>
<g style="mix-blend-mode:multiply" opacity="0.34">
<path d="M284.713 -27.0008L-9.59206 -106.862C-39.8446 -115.072 -71.024 -97.202 -79.2333 -66.9495L-156.794 218.876C-165.003 249.129 -147.134 280.308 -116.881 288.517L177.424 368.379C207.676 376.588 238.856 358.719 247.065 328.466L324.626 42.6404C332.835 12.3878 314.965 -18.7916 284.713 -27.0008Z" fill="#DDDDDD"/>
</g>
</g>
<g style="mix-blend-mode:multiply" opacity="0.4">
<path d="M249.79 -277.43L-143.451 -384.139C-183.874 -395.108 -225.536 -371.231 -236.505 -330.808L-340.139 51.1039C-351.108 91.5268 -327.231 133.188 -286.808 144.157L106.433 250.866C146.856 261.835 188.517 237.958 199.486 197.535L303.121 -184.377C314.09 -224.8 290.213 -266.461 249.79 -277.43Z" stroke="#DDDDDD" stroke-width="3.44" stroke-miterlimit="10"/>
</g>
<g style="mix-blend-mode:multiply" opacity="0.4">
<path d="M205.709 -242.799L-122.926 -331.976C-156.707 -341.143 -191.524 -321.189 -200.691 -287.407L-287.299 31.7587C-296.466 65.5403 -276.511 100.357 -242.73 109.524L85.9048 198.701C119.686 207.868 154.503 187.914 163.67 154.132L250.278 -165.034C259.444 -198.816 239.49 -233.632 205.709 -242.799Z" stroke="#DDDDDD" stroke-width="3.44" stroke-miterlimit="10"/>
</g>
<g style="mix-blend-mode:multiply" opacity="0.4">
<path d="M161.305 -207.913L-102.249 -279.43C-129.34 -286.782 -157.262 -270.779 -164.614 -243.687L-234.07 12.2735C-241.422 39.3653 -225.419 67.2871 -198.328 74.6386L65.2264 146.156C92.3182 153.507 120.24 137.505 127.592 110.413L197.048 -145.548C204.4 -172.64 188.397 -200.561 161.305 -207.913Z" stroke="#DDDDDD" stroke-width="3.44" stroke-miterlimit="10"/>
</g>
</g>
</svg>
